<?xml version="1.0" standalone="no"?>
<!DOCTYPE svg PUBLIC "-//W3C//DTD SVG 20010904//EN"
 "http://www.w3.org/TR/2001/REC-SVG-20010904/DTD/svg10.dtd">
<svg version="1.0" xmlns="http://www.w3.org/2000/svg"
 width="512.000000pt" height="512.000000pt" viewBox="0 0 512.000000 512.000000"
 preserveAspectRatio="xMidYMid meet">
<metadata>
Created by potrace 1.11, written by Peter Selinger 2001-2013
</metadata>
<g transform="translate(0.000000,512.000000) scale(0.100000,-0.100000)"
fill="#000000" stroke="none">
<path d="M2486 4686 c-22 -8 -51 -23 -65 -34 -14 -10 -100 -71 -191 -135
l-165 -117 -610 -1 c-335 0 -626 -1 -646 -3 -81 -6 -175 -75 -213 -156 -20
-43 -21 -65 -26 -471 l-5 -427 -90 -69 c-49 -38 -100 -78 -113 -88 -31 -27
-68 -90 -81 -142 -8 -30 -11 -379 -11 -1190 1 -1159 1 -1180 12 -1198 3 -6 9
-25 13 -43 3 -17 11 -32 16 -32 6 0 7 -4 4 -10 -3 -5 -1 -10 4 -10 6 0 11 -4
11 -10 0 -14 92 -100 108 -100 6 0 12 -4 12 -10 0 -5 3 -9 8 -8 11 2 65 -12
85 -23 9 -5 17 -6 17 -2 0 12 93 3 109 -11 12 -8 13 -8 7 1 -5 9 1 13 18 13
14 0 26 -6 26 -12 0 -10 2 -10 8 -1 10 16 144 16 154 -1 6 -8 8 -8 8 2 0 8 18
12 56 12 41 0 53 -3 48 -13 -4 -6 -4 -9 1 -5 4 4 15 2 24 -5 14 -11 14 -10 2
6 -12 15 -10 17 22 17 19 0 38 -6 40 -12 4 -10 6 -10 6 0 1 8 21 12 67 12 36
0 63 -4 60 -8 -3 -5 1 -9 9 -9 8 0 12 4 10 8 -3 4 51 8 121 8 99 1 124 -1 118
-11 -4 -7 -4 -10 1 -6 4 4 15 2 24 -5 14 -11 14 -10 2 6 -12 15 -10 17 23 17
27 0 35 -3 30 -12 -6 -10 -4 -10 7 0 7 6 22 12 34 12 12 0 27 -6 34 -12 11
-10 13 -10 7 0 -5 8 1 12 18 12 14 0 26 -6 26 -12 0 -10 2 -10 8 -1 10 16 144
16 154 -1 6 -8 8 -8 8 2 0 9 24 12 86 12 47 0 83 -4 80 -8 -3 -5 1 -9 9 -9 8
0 12 4 9 9 -3 4 6 8 20 8 14 0 26 -6 26 -12 0 -10 2 -10 8 -1 5 7 49 12 130
12 68 1 121 -2 118 -7 -3 -5 1 -9 9 -9 8 0 12 4 9 9 -3 4 6 8 20 8 14 0 26 -6
26 -12 0 -10 2 -10 8 -1 10 16 161 16 181 0 12 -9 13 -9 7 0 -5 9 1 13 18 13
14 0 26 -6 26 -12 0 -10 2 -10 8 -1 10 16 144 16 154 -1 6 -8 8 -8 8 2 0 8 18
12 56 12 41 0 53 -3 48 -12 -4 -7 -4 -10 1 -6 4 4 15 2 24 -5 14 -11 14 -10 2
6 -12 15 -10 17 22 17 19 0 38 -6 40 -12 4 -10 6 -10 6 0 1 8 21 12 67 12 36
0 63 -4 60 -8 -3 -5 1 -9 9 -9 8 0 12 4 10 8 -3 4 51 8 121 8 99 1 124 -1 118
-11 -4 -7 -4 -10 1 -6 4 4 15 2 24 -5 14 -11 14 -10 2 6 -12 15 -10 17 23 17
27 0 35 -3 30 -12 -6 -10 -4 -10 7 0 17 16 51 16 68 0 11 -10 13 -10 7 0 -5 8
1 12 18 12 14 0 26 -6 26 -12 0 -10 2 -10 8 -1 10 16 144 16 154 -1 6 -8 8 -8
8 2 0 9 24 12 86 12 47 0 83 -4 80 -8 -3 -5 1 -9 9 -9 8 0 12 4 9 9 -3 4 6 8
20 8 14 0 26 -6 26 -12 0 -10 2 -10 8 -1 5 7 49 12 130 12 68 1 121 -2 118 -7
-3 -5 1 -9 9 -9 8 0 12 4 9 9 -3 4 6 8 20 8 14 0 26 -6 26 -12 0 -10 2 -10 8
-1 5 7 47 11 129 12 83 0 132 4 156 15 20 8 38 12 41 9 3 -3 12 1 20 8 37 34
47 40 56 34 6 -4 9 -3 8 2 -2 5 12 25 29 44 18 19 32 38 32 43 0 5 4 12 11 16
6 4 13 13 14 21 1 8 8 33 15 57 9 33 12 318 12 1201 0 1157 0 1158 -21 1215
-25 66 -78 123 -198 211 l-81 60 -3 425 c-3 417 -3 426 -25 471 -30 59 -73
102 -131 131 l-47 23 -650 5 -650 5 -167 120 c-92 66 -185 130 -206 142 -50
29 -135 38 -186 19z"/>
<path d="M336 502 c-3 -5 1 -9 9 -9 8 0 12 4 9 9 -3 4 -7 8 -9 8 -2 0 -6 -4
-9 -8z"/>
<path d="M4690 419 c0 -5 5 -7 10 -4 6 3 10 8 10 11 0 2 -4 4 -10 4 -5 0 -10
-5 -10 -11z"/>
<path d="M465 400 c-3 -6 1 -7 9 -4 18 7 21 14 7 14 -6 0 -13 -4 -16 -10z"/>
<path d="M4596 393 c-6 -14 -5 -15 5 -6 7 7 10 15 7 18 -3 3 -9 -2 -12 -12z"/>
<path d="M794 386 c1 -8 5 -18 8 -22 4 -3 5 1 4 10 -1 8 -5 18 -8 22 -4 3 -5
-1 -4 -10z"/>
<path d="M1754 386 c1 -8 5 -18 8 -22 4 -3 5 1 4 10 -1 8 -5 18 -8 22 -4 3 -5
-1 -4 -10z"/>
<path d="M2113 385 c0 -8 4 -12 9 -9 5 3 6 10 3 15 -9 13 -12 11 -12 -6z"/>
<path d="M2714 386 c1 -8 5 -18 8 -22 4 -3 5 1 4 10 -1 8 -5 18 -8 22 -4 3 -5
-1 -4 -10z"/>
<path d="M3674 386 c1 -8 5 -18 8 -22 4 -3 5 1 4 10 -1 8 -5 18 -8 22 -4 3 -5
-1 -4 -10z"/>
<path d="M4033 385 c0 -8 4 -12 9 -9 5 3 6 10 3 15 -9 13 -12 11 -12 -6z"/>
<path d="M2145 380 c-3 -6 1 -7 9 -4 18 7 21 14 7 14 -6 0 -13 -4 -16 -10z"/>
<path d="M4065 380 c-3 -6 1 -7 9 -4 18 7 21 14 7 14 -6 0 -13 -4 -16 -10z"/>
<path d="M4635 380 c3 -5 8 -10 11 -10 2 0 4 5 4 10 0 6 -5 10 -11 10 -5 0 -7
-4 -4 -10z"/>
<path d="M693 365 c0 -8 4 -15 9 -15 4 0 8 4 8 9 0 6 -4 12 -8 15 -5 3 -9 -1
-9 -9z"/>
<path d="M1653 365 c0 -8 4 -15 9 -15 4 0 8 4 8 9 0 6 -4 12 -8 15 -5 3 -9 -1
-9 -9z"/>
<path d="M2613 365 c0 -8 4 -15 9 -15 4 0 8 4 8 9 0 6 -4 12 -8 15 -5 3 -9 -1
-9 -9z"/>
<path d="M3573 365 c0 -8 4 -15 9 -15 4 0 8 4 8 9 0 6 -4 12 -8 15 -5 3 -9 -1
-9 -9z"/>
<path d="M615 360 c3 -5 8 -10 11 -10 2 0 4 5 4 10 0 6 -5 10 -11 10 -5 0 -7
-4 -4 -10z"/>
<path d="M855 360 c-3 -5 -1 -10 4 -10 6 0 11 5 11 10 0 6 -2 10 -4 10 -3 0
-8 -4 -11 -10z"/>
<path d="M1815 360 c-3 -5 -1 -10 4 -10 6 0 11 5 11 10 0 6 -2 10 -4 10 -3 0
-8 -4 -11 -10z"/>
<path d="M2210 359 c0 -5 5 -7 10 -4 6 3 10 8 10 11 0 2 -4 4 -10 4 -5 0 -10
-5 -10 -11z"/>
<path d="M2775 360 c-3 -5 -1 -10 4 -10 6 0 11 5 11 10 0 6 -2 10 -4 10 -3 0
-8 -4 -11 -10z"/>
<path d="M3735 360 c-3 -5 -1 -10 4 -10 6 0 11 5 11 10 0 6 -2 10 -4 10 -3 0
-8 -4 -11 -10z"/>
<path d="M4130 359 c0 -5 5 -7 10 -4 6 3 10 8 10 11 0 2 -4 4 -10 4 -5 0 -10
-5 -10 -11z"/>
<path d="M556 347 c3 -10 9 -15 12 -12 3 3 0 11 -7 18 -10 9 -11 8 -5 -6z"/>
<path d="M1315 350 c-4 -6 -11 -7 -17 -4 -7 4 -8 2 -4 -5 6 -9 11 -9 22 0 14
11 18 19 10 19 -3 0 -8 -5 -11 -10z"/>
<path d="M3235 350 c-4 -6 -11 -7 -17 -4 -7 4 -8 2 -4 -5 6 -9 11 -9 22 0 14
11 18 19 10 19 -3 0 -8 -5 -11 -10z"/>
<path d="M995 340 c3 -5 8 -10 11 -10 2 0 4 5 4 10 0 6 -5 10 -11 10 -5 0 -7
-4 -4 -10z"/>
<path d="M1065 340 c-3 -6 1 -7 9 -4 18 7 21 14 7 14 -6 0 -13 -4 -16 -10z"/>
<path d="M1170 346 c0 -2 7 -7 16 -10 8 -3 12 -2 9 4 -6 10 -25 14 -25 6z"/>
<path d="M1235 340 c3 -5 8 -10 11 -10 2 0 4 5 4 10 0 6 -5 10 -11 10 -5 0 -7
-4 -4 -10z"/>
<path d="M1365 340 c-3 -6 1 -7 9 -4 18 7 21 14 7 14 -6 0 -13 -4 -16 -10z"/>
<path d="M1410 346 c0 -2 7 -7 16 -10 8 -3 12 -2 9 4 -6 10 -25 14 -25 6z"/>
<path d="M1475 340 c3 -5 8 -10 11 -10 2 0 4 5 4 10 0 6 -5 10 -11 10 -5 0 -7
-4 -4 -10z"/>
<path d="M1530 346 c0 -2 7 -7 16 -10 8 -3 12 -2 9 4 -6 10 -25 14 -25 6z"/>
<path d="M1970 346 c0 -2 7 -7 16 -10 8 -3 12 -2 9 4 -6 10 -25 14 -25 6z"/>
<path d="M2035 340 c3 -5 8 -10 11 -10 2 0 4 5 4 10 0 6 -5 10 -11 10 -5 0 -7
-4 -4 -10z"/>
<path d="M2290 346 c0 -2 7 -7 16 -10 8 -3 12 -2 9 4 -6 10 -25 14 -25 6z"/>
<path d="M2355 340 c3 -5 8 -10 11 -10 2 0 4 5 4 10 0 6 -5 10 -11 10 -5 0 -7
-4 -4 -10z"/>
<path d="M2915 340 c3 -5 8 -10 11 -10 2 0 4 5 4 10 0 6 -5 10 -11 10 -5 0 -7
-4 -4 -10z"/>
<path d="M2985 340 c-3 -6 1 -7 9 -4 18 7 21 14 7 14 -6 0 -13 -4 -16 -10z"/>
<path d="M3090 346 c0 -2 7 -7 16 -10 8 -3 12 -2 9 4 -6 10 -25 14 -25 6z"/>
<path d="M3155 340 c3 -5 8 -10 11 -10 2 0 4 5 4 10 0 6 -5 10 -11 10 -5 0 -7
-4 -4 -10z"/>
<path d="M3285 340 c-3 -6 1 -7 9 -4 18 7 21 14 7 14 -6 0 -13 -4 -16 -10z"/>
<path d="M3330 346 c0 -2 7 -7 16 -10 8 -3 12 -2 9 4 -6 10 -25 14 -25 6z"/>
<path d="M3395 340 c3 -5 8 -10 11 -10 2 0 4 5 4 10 0 6 -5 10 -11 10 -5 0 -7
-4 -4 -10z"/>
<path d="M3450 346 c0 -2 7 -7 16 -10 8 -3 12 -2 9 4 -6 10 -25 14 -25 6z"/>
<path d="M3890 346 c0 -2 7 -7 16 -10 8 -3 12 -2 9 4 -6 10 -25 14 -25 6z"/>
<path d="M3955 340 c3 -5 8 -10 11 -10 2 0 4 5 4 10 0 6 -5 10 -11 10 -5 0 -7
-4 -4 -10z"/>
<path d="M4210 346 c0 -2 7 -7 16 -10 8 -3 12 -2 9 4 -6 10 -25 14 -25 6z"/>
<path d="M4275 340 c3 -5 8 -10 11 -10 2 0 4 5 4 10 0 6 -5 10 -11 10 -5 0 -7
-4 -4 -10z"/>
<path d="M635 321 c-3 -5 -2 -12 3 -15 5 -3 9 1 9 9 0 17 -3 19 -12 6z"/>
</g>
</svg>
